<?xml version="1.0" encoding="UTF-8" standalone="no"?><svg xmlns="http://www.w3.org/2000/svg" xmlns:xlink="http://www.w3.org/1999/xlink" contentStyleType="text/css" height="1652px" preserveAspectRatio="none" style="width:472px;height:1652px;background:#FFFFFF;" version="1.1" viewBox="0 0 472 1652" width="472px" zoomAndPan="magnify"><defs/><g><rect fill="none" height="27.6094" id="_title" style="stroke:none;stroke-width:1.0;" width="168" x="148" y="10"/><text fill="#000000" font-family="sans-serif" font-size="14" font-weight="bold" lengthAdjust="spacing" textLength="158" x="153" y="29.5332">Déroulement d'un tour</text><rect fill="#FFFFFF" height="1542.2109" style="stroke:#181818;stroke-width:1.0;" width="10" x="71.5" y="86.2188"/><rect fill="#FFFFFF" height="30.3516" style="stroke:#181818;stroke-width:1.0;" width="10" x="391.5" y="224.7188"/><rect fill="#FFFFFF" height="30.3516" style="stroke:#181818;stroke-width:1.0;" width="10" x="391.5" y="310.7734"/><rect fill="#FFFFFF" height="14" style="stroke:#181818;stroke-width:1.0;" width="10" x="391.5" y="420.1797"/><rect fill="#FFFFFF" height="30.3516" style="stroke:#181818;stroke-width:1.0;" width="10" x="391.5" y="471.5313"/><rect fill="#FFFFFF" height="30.3516" style="stroke:#181818;stroke-width:1.0;" width="10" x="391.5" y="532.2344"/><rect fill="#FFFFFF" height="14" style="stroke:#181818;stroke-width:1.0;" width="10" x="391.5" y="609.2891"/><rect fill="#FFFFFF" height="14" style="stroke:#181818;stroke-width:1.0;" width="10" x="391.5" y="723.3438"/><rect fill="#FFFFFF" height="14" style="stroke:#181818;stroke-width:1.0;" width="10" x="391.5" y="811.0469"/><rect fill="#FFFFFF" height="14" style="stroke:#181818;stroke-width:1.0;" width="10" x="391.5" y="898.75"/><rect fill="#FFFFFF" height="14" style="stroke:#181818;stroke-width:1.0;" width="10" x="391.5" y="986.4531"/><rect fill="#FFFFFF" height="14" style="stroke:#181818;stroke-width:1.0;" width="10" x="391.5" y="1075.1563"/><rect fill="#FFFFFF" height="14" style="stroke:#181818;stroke-width:1.0;" width="10" x="391.5" y="1144.8594"/><rect fill="#FFFFFF" height="30.3516" style="stroke:#181818;stroke-width:1.0;" width="10" x="391.5" y="1316.2656"/><rect fill="#FFFFFF" height="14" style="stroke:#181818;stroke-width:1.0;" width="10" x="391.5" y="1599.4297"/><rect fill="none" height="1488.7656" style="stroke:#000000;stroke-width:1.5;" width="445" x="10" y="139.6641"/><rect fill="none" height="79.0547" style="stroke:#000000;stroke-width:1.5;" width="405" x="30" y="270.0703"/><rect fill="none" height="79.0547" style="stroke:#000000;stroke-width:1.5;" width="405" x="30" y="363.125"/><rect fill="none" height="534.5703" style="stroke:#000000;stroke-width:1.5;" width="425" x="20" y="682.6406"/><rect fill="none" height="106.0547" style="stroke:#000000;stroke-width:1.5;" width="405" x="30" y="1104.1563"/><rect fill="none" height="345.8672" style="stroke:#000000;stroke-width:1.5;" width="405" x="30" y="1275.5625"/><line style="stroke:#181818;stroke-width:0.5;stroke-dasharray:5.0,5.0;" x1="76" x2="76" y1="76.2188" y2="1645.4297"/><line style="stroke:#181818;stroke-width:0.5;stroke-dasharray:5.0,5.0;" x1="396" x2="396" y1="76.2188" y2="1645.4297"/><rect fill="#E2E2F0" height="31.6094" rx="2.5" ry="2.5" style="stroke:#181818;stroke-width:0.5;" width="73" x="40" y="43.6094"/><text fill="#000000" font-family="sans-serif" font-size="14" lengthAdjust="spacing" textLength="59" x="47" y="65.1426">Controler</text><rect fill="#E2E2F0" height="31.6094" rx="2.5" ry="2.5" style="stroke:#181818;stroke-width:0.5;" width="57" x="368" y="43.6094"/><text fill="#000000" font-family="sans-serif" font-size="14" lengthAdjust="spacing" textLength="43" x="375" y="65.1426">Joueur</text><rect fill="#FFFFFF" height="1542.2109" style="stroke:#181818;stroke-width:1.0;" width="10" x="71.5" y="86.2188"/><rect fill="#FFFFFF" height="30.3516" style="stroke:#181818;stroke-width:1.0;" width="10" x="391.5" y="224.7188"/><rect fill="#FFFFFF" height="30.3516" style="stroke:#181818;stroke-width:1.0;" width="10" x="391.5" y="310.7734"/><rect fill="#FFFFFF" height="14" style="stroke:#181818;stroke-width:1.0;" width="10" x="391.5" y="420.1797"/><rect fill="#FFFFFF" height="30.3516" style="stroke:#181818;stroke-width:1.0;" width="10" x="391.5" y="471.5313"/><rect fill="#FFFFFF" height="30.3516" style="stroke:#181818;stroke-width:1.0;" width="10" x="391.5" y="532.2344"/><rect fill="#FFFFFF" height="14" style="stroke:#181818;stroke-width:1.0;" width="10" x="391.5" y="609.2891"/><rect fill="#FFFFFF" height="14" style="stroke:#181818;stroke-width:1.0;" width="10" x="391.5" y="723.3438"/><rect fill="#FFFFFF" height="14" style="stroke:#181818;stroke-width:1.0;" width="10" x="391.5" y="811.0469"/><rect fill="#FFFFFF" height="14" style="stroke:#181818;stroke-width:1.0;" width="10" x="391.5" y="898.75"/><rect fill="#FFFFFF" height="14" style="stroke:#181818;stroke-width:1.0;" width="10" x="391.5" y="986.4531"/><rect fill="#FFFFFF" height="14" style="stroke:#181818;stroke-width:1.0;" width="10" x="391.5" y="1075.1563"/><rect fill="#FFFFFF" height="14" style="stroke:#181818;stroke-width:1.0;" width="10" x="391.5" y="1144.8594"/><rect fill="#FFFFFF" height="30.3516" style="stroke:#181818;stroke-width:1.0;" width="10" x="391.5" y="1316.2656"/><rect fill="#FFFFFF" height="14" style="stroke:#181818;stroke-width:1.0;" width="10" x="391.5" y="1599.4297"/><rect fill="none" height="41.4453" style="stroke:#000000;stroke-width:1.5;" width="391" x="37" y="86.2188"/><path d="M37,86.2188 L99,86.2188 L99,94.2188 L89,104.2188 L37,104.2188 L37,86.2188 " fill="#EEEEEE" style="stroke:#000000;stroke-width:2.0;"/><text fill="#000000" font-family="sans-serif" font-size="13" font-weight="bold" lengthAdjust="spacing" textLength="17" x="50" y="101.7139">ref</text><text fill="#000000" font-family="sans-serif" font-size="12" lengthAdjust="spacing" textLength="209" x="128" y="120.6758">Initialisation du plateau et des joueurs</text><path d="M10,139.6641 L83,139.6641 L83,148.0156 L73,158.0156 L10,158.0156 L10,139.6641 " fill="#EEEEEE" style="stroke:#000000;stroke-width:1.5;"/><rect fill="none" height="1488.7656" style="stroke:#000000;stroke-width:1.5;" width="445" x="10" y="139.6641"/><text fill="#000000" font-family="sans-serif" font-size="13" font-weight="bold" lengthAdjust="spacing" textLength="28" x="25" y="154.1592">loop</text><text fill="#000000" font-family="sans-serif" font-size="11" font-weight="bold" lengthAdjust="spacing" textLength="184" x="98" y="153.083">[Tant qu'il n'y a pas de vainqueur]</text><rect fill="#EEEEEE" height="3" style="stroke:#EEEEEE;stroke-width:1.0;" width="465" x="0" y="179.1914"/><line style="stroke:#000000;stroke-width:1.0;" x1="0" x2="465" y1="179.1914" y2="179.1914"/><line style="stroke:#000000;stroke-width:1.0;" x1="0" x2="465" y1="182.1914" y2="182.1914"/><rect fill="#EEEEEE" height="24.3516" style="stroke:#000000;stroke-width:2.0;" width="103" x="181" y="168.0156"/><text fill="#000000" font-family="sans-serif" font-size="13" font-weight="bold" lengthAdjust="spacing" textLength="85" x="187" y="185.5107">Phase renfort</text><polygon fill="#181818" points="379.5,220.7188,389.5,224.7188,379.5,228.7188,383.5,224.7188" style="stroke:#181818;stroke-width:1.0;"/><line style="stroke:#181818;stroke-width:1.0;" x1="81.5" x2="385.5" y1="224.7188" y2="224.7188"/><text fill="#000000" font-family="sans-serif" font-size="13" lengthAdjust="spacing" textLength="117" x="88.5" y="219.8623">calculerNbRenforts()</text><polygon fill="#181818" points="92.5,251.0703,82.5,255.0703,92.5,259.0703,88.5,255.0703" style="stroke:#181818;stroke-width:1.0;"/><line style="stroke:#181818;stroke-width:1.0;stroke-dasharray:2.0,2.0;" x1="86.5" x2="395.5" y1="255.0703" y2="255.0703"/><text fill="#000000" font-family="sans-serif" font-size="13" lengthAdjust="spacing" textLength="62" x="98.5" y="250.2139">nbRenforts</text><path d="M30,270.0703 L91,270.0703 L91,278.4219 L81,288.4219 L30,288.4219 L30,270.0703 " fill="#EEEEEE" style="stroke:#000000;stroke-width:1.5;"/><rect fill="none" height="79.0547" style="stroke:#000000;stroke-width:1.5;" width="405" x="30" y="270.0703"/><text fill="#000000" font-family="sans-serif" font-size="13" font-weight="bold" lengthAdjust="spacing" textLength="16" x="45" y="284.5654">alt</text><text fill="#000000" font-family="sans-serif" font-size="11" font-weight="bold" lengthAdjust="spacing" textLength="180" x="106" y="283.4893">[Si le joueur a au moins 3 cartes]</text><polygon fill="#181818" points="379.5,306.7734,389.5,310.7734,379.5,314.7734,383.5,310.7734" style="stroke:#181818;stroke-width:1.0;"/><line style="stroke:#181818;stroke-width:1.0;" x1="81.5" x2="385.5" y1="310.7734" y2="310.7734"/><text fill="#000000" font-family="sans-serif" font-size="13" lengthAdjust="spacing" textLength="99" x="88.5" y="305.917">echangerCartes()</text><polygon fill="#181818" points="92.5,337.125,82.5,341.125,92.5,345.125,88.5,341.125" style="stroke:#181818;stroke-width:1.0;"/><line style="stroke:#181818;stroke-width:1.0;stroke-dasharray:2.0,2.0;" x1="86.5" x2="395.5" y1="341.125" y2="341.125"/><text fill="#000000" font-family="sans-serif" font-size="13" lengthAdjust="spacing" textLength="100" x="98.5" y="336.2686">nbRenfortsCartes</text><path d="M30,363.125 L103,363.125 L103,371.4766 L93,381.4766 L30,381.4766 L30,363.125 " fill="#EEEEEE" style="stroke:#000000;stroke-width:1.5;"/><rect fill="none" height="79.0547" style="stroke:#000000;stroke-width:1.5;" width="405" x="30" y="363.125"/><text fill="#000000" font-family="sans-serif" font-size="13" font-weight="bold" lengthAdjust="spacing" textLength="28" x="45" y="377.6201">loop</text><text fill="#000000" font-family="sans-serif" font-size="11" font-weight="bold" lengthAdjust="spacing" textLength="232" x="118" y="376.5439">[Pour chaque nouveau régiment à ajouter]</text><polygon fill="#181818" points="379.5,416.1797,389.5,420.1797,379.5,424.1797,383.5,420.1797" style="stroke:#181818;stroke-width:1.0;"/><line style="stroke:#181818;stroke-width:1.0;" x1="81.5" x2="385.5" y1="420.1797" y2="420.1797"/><text fill="#000000" font-family="sans-serif" font-size="13" lengthAdjust="spacing" textLength="64" x="88.5" y="398.9717">getArmee()</text><text fill="#000000" font-family="sans-serif" font-size="13" lengthAdjust="spacing" textLength="101" x="120.5" y="415.3232">.ajouterPion(pion)</text><polygon fill="#181818" points="92.5,430.1797,82.5,434.1797,92.5,438.1797,88.5,434.1797" style="stroke:#181818;stroke-width:1.0;"/><line style="stroke:#181818;stroke-width:1.0;stroke-dasharray:2.0,2.0;" x1="86.5" x2="395.5" y1="434.1797" y2="434.1797"/><polygon fill="#181818" points="379.5,467.5313,389.5,471.5313,379.5,475.5313,383.5,471.5313" style="stroke:#181818;stroke-width:1.0;"/><line style="stroke:#181818;stroke-width:1.0;" x1="81.5" x2="385.5" y1="471.5313" y2="471.5313"/><text fill="#000000" font-family="sans-serif" font-size="13" lengthAdjust="spacing" textLength="105" x="88.5" y="466.6748">getPionsAPlacer()</text><polygon fill="#181818" points="92.5,497.8828,82.5,501.8828,92.5,505.8828,88.5,501.8828" style="stroke:#181818;stroke-width:1.0;"/><line style="stroke:#181818;stroke-width:1.0;stroke-dasharray:2.0,2.0;" x1="86.5" x2="395.5" y1="501.8828" y2="501.8828"/><text fill="#000000" font-family="sans-serif" font-size="13" lengthAdjust="spacing" textLength="63" x="98.5" y="497.0264">List&lt;Pion&gt;</text><polygon fill="#181818" points="379.5,528.2344,389.5,532.2344,379.5,536.2344,383.5,532.2344" style="stroke:#181818;stroke-width:1.0;"/><line style="stroke:#181818;stroke-width:1.0;" x1="81.5" x2="385.5" y1="532.2344" y2="532.2344"/><text fill="#000000" font-family="sans-serif" font-size="13" lengthAdjust="spacing" textLength="97" x="88.5" y="527.3779">obtenirTerritoire()</text><polygon fill="#181818" points="92.5,558.5859,82.5,562.5859,92.5,566.5859,88.5,562.5859" style="stroke:#181818;stroke-width:1.0;"/><line style="stroke:#181818;stroke-width:1.0;stroke-dasharray:2.0,2.0;" x1="86.5" x2="395.5" y1="562.5859" y2="562.5859"/><text fill="#000000" font-family="sans-serif" font-size="13" lengthAdjust="spacing" textLength="87" x="98.5" y="557.7295">List&lt;Territoire&gt;</text><polygon fill="#181818" points="379.5,605.2891,389.5,609.2891,379.5,613.2891,383.5,609.2891" style="stroke:#181818;stroke-width:1.0;"/><line style="stroke:#181818;stroke-width:1.0;" x1="81.5" x2="385.5" y1="609.2891" y2="609.2891"/><text fill="#000000" font-family="sans-serif" font-size="13" lengthAdjust="spacing" textLength="97" x="88.5" y="588.0811">obtenirTerritoire()</text><text fill="#000000" font-family="sans-serif" font-size="13" lengthAdjust="spacing" textLength="147" x="120.5" y="604.4326">.ajouterRegiment(Pion, 1)</text><polygon fill="#181818" points="92.5,619.2891,82.5,623.2891,92.5,627.2891,88.5,623.2891" style="stroke:#181818;stroke-width:1.0;"/><line style="stroke:#181818;stroke-width:1.0;stroke-dasharray:2.0,2.0;" x1="86.5" x2="395.5" y1="623.2891" y2="623.2891"/><rect fill="#EEEEEE" height="3" style="stroke:#EEEEEE;stroke-width:1.0;" width="465" x="0" y="652.4648"/><line style="stroke:#000000;stroke-width:1.0;" x1="0" x2="465" y1="652.4648" y2="652.4648"/><line style="stroke:#000000;stroke-width:1.0;" x1="0" x2="465" y1="655.4648" y2="655.4648"/><rect fill="#EEEEEE" height="24.3516" style="stroke:#000000;stroke-width:2.0;" width="109" x="178" y="641.2891"/><text fill="#000000" font-family="sans-serif" font-size="13" font-weight="bold" lengthAdjust="spacing" textLength="91" x="184" y="658.7842">Phase attaque</text><path d="M20,682.6406 L81,682.6406 L81,690.9922 L71,700.9922 L20,700.9922 L20,682.6406 " fill="#EEEEEE" style="stroke:#000000;stroke-width:1.5;"/><rect fill="none" height="534.5703" style="stroke:#000000;stroke-width:1.5;" width="425" x="20" y="682.6406"/><text fill="#000000" font-family="sans-serif" font-size="13" font-weight="bold" lengthAdjust="spacing" textLength="16" x="35" y="697.1357">alt</text><text fill="#000000" font-family="sans-serif" font-size="11" font-weight="bold" lengthAdjust="spacing" textLength="202" x="96" y="696.0596">[Si le joueur veut lancer une attaque]</text><polygon fill="#181818" points="379.5,719.3438,389.5,723.3438,379.5,727.3438,383.5,723.3438" style="stroke:#181818;stroke-width:1.0;"/><line style="stroke:#181818;stroke-width:1.0;" x1="81.5" x2="385.5" y1="723.3438" y2="723.3438"/><text fill="#000000" font-family="sans-serif" font-size="13" lengthAdjust="spacing" textLength="156" x="88.5" y="718.4873">demanderTerritoireSource()</text><polygon fill="#181818" points="92.5,733.3438,82.5,737.3438,92.5,741.3438,88.5,737.3438" style="stroke:#181818;stroke-width:1.0;"/><line style="stroke:#181818;stroke-width:1.0;stroke-dasharray:2.0,2.0;" x1="86.5" x2="395.5" y1="737.3438" y2="737.3438"/><line style="stroke:#181818;stroke-width:1.0;" x1="81.5" x2="123.5" y1="767.6953" y2="767.6953"/><line style="stroke:#181818;stroke-width:1.0;" x1="123.5" x2="123.5" y1="767.6953" y2="780.6953"/><line style="stroke:#181818;stroke-width:1.0;" x1="82.5" x2="123.5" y1="780.6953" y2="780.6953"/><polygon fill="#181818" points="92.5,776.6953,82.5,780.6953,92.5,784.6953,88.5,780.6953" style="stroke:#181818;stroke-width:1.0;"/><text fill="#000000" font-family="sans-serif" font-size="13" lengthAdjust="spacing" textLength="137" x="88.5" y="762.8389">choisirTerritoireSource()</text><polygon fill="#181818" points="379.5,807.0469,389.5,811.0469,379.5,815.0469,383.5,811.0469" style="stroke:#181818;stroke-width:1.0;"/><line style="stroke:#181818;stroke-width:1.0;" x1="81.5" x2="385.5" y1="811.0469" y2="811.0469"/><text fill="#000000" font-family="sans-serif" font-size="13" lengthAdjust="spacing" textLength="291" x="88.5" y="806.1904">demanderTerritoireCiblePourAttaquer(attaquant,tS)</text><polygon fill="#181818" points="92.5,821.0469,82.5,825.0469,92.5,829.0469,88.5,825.0469" style="stroke:#181818;stroke-width:1.0;"/><line style="stroke:#181818;stroke-width:1.0;stroke-dasharray:2.0,2.0;" x1="86.5" x2="395.5" y1="825.0469" y2="825.0469"/><line style="stroke:#181818;stroke-width:1.0;" x1="81.5" x2="123.5" y1="855.3984" y2="855.3984"/><line style="stroke:#181818;stroke-width:1.0;" x1="123.5" x2="123.5" y1="855.3984" y2="868.3984"/><line style="stroke:#181818;stroke-width:1.0;" x1="82.5" x2="123.5" y1="868.3984" y2="868.3984"/><polygon fill="#181818" points="92.5,864.3984,82.5,868.3984,92.5,872.3984,88.5,868.3984" style="stroke:#181818;stroke-width:1.0;"/><text fill="#000000" font-family="sans-serif" font-size="13" lengthAdjust="spacing" textLength="121" x="88.5" y="850.542">choisirTerrioireCible()</text><polygon fill="#181818" points="379.5,894.75,389.5,898.75,379.5,902.75,383.5,898.75" style="stroke:#181818;stroke-width:1.0;"/><line style="stroke:#181818;stroke-width:1.0;" x1="81.5" x2="385.5" y1="898.75" y2="898.75"/><text fill="#000000" font-family="sans-serif" font-size="13" lengthAdjust="spacing" textLength="170" x="88.5" y="893.8936">demanderNbDesAttaque(tS)()</text><polygon fill="#181818" points="92.5,908.75,82.5,912.75,92.5,916.75,88.5,912.75" style="stroke:#181818;stroke-width:1.0;"/><line style="stroke:#181818;stroke-width:1.0;stroke-dasharray:2.0,2.0;" x1="86.5" x2="395.5" y1="912.75" y2="912.75"/><line style="stroke:#181818;stroke-width:1.0;" x1="81.5" x2="123.5" y1="943.1016" y2="943.1016"/><line style="stroke:#181818;stroke-width:1.0;" x1="123.5" x2="123.5" y1="943.1016" y2="956.1016"/><line style="stroke:#181818;stroke-width:1.0;" x1="82.5" x2="123.5" y1="956.1016" y2="956.1016"/><polygon fill="#181818" points="92.5,952.1016,82.5,956.1016,92.5,960.1016,88.5,956.1016" style="stroke:#181818;stroke-width:1.0;"/><text fill="#000000" font-family="sans-serif" font-size="13" lengthAdjust="spacing" textLength="130" x="88.5" y="938.2451">choisirNbDesAttaque()</text><polygon fill="#181818" points="379.5,982.4531,389.5,986.4531,379.5,990.4531,383.5,986.4531" style="stroke:#181818;stroke-width:1.0;"/><line style="stroke:#181818;stroke-width:1.0;" x1="81.5" x2="385.5" y1="986.4531" y2="986.4531"/><text fill="#000000" font-family="sans-serif" font-size="13" lengthAdjust="spacing" textLength="132" x="88.5" y="981.5967">lancerDes(desAttaque)</text><polygon fill="#181818" points="92.5,996.4531,82.5,1000.4531,92.5,1004.4531,88.5,1000.4531" style="stroke:#181818;stroke-width:1.0;"/><line style="stroke:#181818;stroke-width:1.0;stroke-dasharray:2.0,2.0;" x1="86.5" x2="395.5" y1="1000.4531" y2="1000.4531"/><polygon fill="#181818" points="92.5,1026.8047,82.5,1030.8047,92.5,1034.8047,88.5,1030.8047" style="stroke:#181818;stroke-width:1.0;"/><line style="stroke:#181818;stroke-width:1.0;" x1="86.5" x2="395.5" y1="1030.8047" y2="1030.8047"/><text fill="#000000" font-family="sans-serif" font-size="13" lengthAdjust="spacing" textLength="186" x="98.5" y="1025.9482">List&lt;Dé&gt; attaquant et défenseur</text><polygon fill="#181818" points="384.5,1040.8047,394.5,1044.8047,384.5,1048.8047,388.5,1044.8047" style="stroke:#181818;stroke-width:1.0;"/><line style="stroke:#181818;stroke-width:1.0;stroke-dasharray:2.0,2.0;" x1="81.5" x2="390.5" y1="1044.8047" y2="1044.8047"/><polygon fill="#181818" points="379.5,1071.1563,389.5,1075.1563,379.5,1079.1563,383.5,1075.1563" style="stroke:#181818;stroke-width:1.0;"/><line style="stroke:#181818;stroke-width:1.0;" x1="81.5" x2="385.5" y1="1075.1563" y2="1075.1563"/><text fill="#000000" font-family="sans-serif" font-size="13" lengthAdjust="spacing" textLength="255" x="88.5" y="1070.2998">resolveAttack(resultatsAttaque, desAttaque)</text><polygon fill="#181818" points="92.5,1085.1563,82.5,1089.1563,92.5,1093.1563,88.5,1089.1563" style="stroke:#181818;stroke-width:1.0;"/><line style="stroke:#181818;stroke-width:1.0;stroke-dasharray:2.0,2.0;" x1="86.5" x2="395.5" y1="1089.1563" y2="1089.1563"/><path d="M30,1104.1563 L91,1104.1563 L91,1112.5078 L81,1122.5078 L30,1122.5078 L30,1104.1563 " fill="#EEEEEE" style="stroke:#000000;stroke-width:1.5;"/><rect fill="none" height="106.0547" style="stroke:#000000;stroke-width:1.5;" width="405" x="30" y="1104.1563"/><text fill="#000000" font-family="sans-serif" font-size="13" font-weight="bold" lengthAdjust="spacing" textLength="16" x="45" y="1118.6514">alt</text><text fill="#000000" font-family="sans-serif" font-size="11" font-weight="bold" lengthAdjust="spacing" textLength="176" x="106" y="1117.5752">[si l'attaquant à réussi l'attaque]</text><polygon fill="#181818" points="379.5,1140.8594,389.5,1144.8594,379.5,1148.8594,383.5,1144.8594" style="stroke:#181818;stroke-width:1.0;"/><line style="stroke:#181818;stroke-width:1.0;" x1="81.5" x2="385.5" y1="1144.8594" y2="1144.8594"/><text fill="#000000" font-family="sans-serif" font-size="13" lengthAdjust="spacing" textLength="217" x="88.5" y="1140.0029">demanderNbRegimentDeplace(tS, tC)</text><polygon fill="#181818" points="92.5,1154.8594,82.5,1158.8594,92.5,1162.8594,88.5,1158.8594" style="stroke:#181818;stroke-width:1.0;"/><line style="stroke:#181818;stroke-width:1.0;stroke-dasharray:2.0,2.0;" x1="86.5" x2="395.5" y1="1158.8594" y2="1158.8594"/><line style="stroke:#181818;stroke-width:1.0;" x1="81.5" x2="123.5" y1="1189.2109" y2="1189.2109"/><line style="stroke:#181818;stroke-width:1.0;" x1="123.5" x2="123.5" y1="1189.2109" y2="1202.2109"/><line style="stroke:#181818;stroke-width:1.0;" x1="82.5" x2="123.5" y1="1202.2109" y2="1202.2109"/><polygon fill="#181818" points="92.5,1198.2109,82.5,1202.2109,92.5,1206.2109,88.5,1202.2109" style="stroke:#181818;stroke-width:1.0;"/><text fill="#000000" font-family="sans-serif" font-size="13" lengthAdjust="spacing" textLength="161" x="88.5" y="1184.3545">choisrNbRegimentDeplace()</text><rect fill="#EEEEEE" height="3" style="stroke:#EEEEEE;stroke-width:1.0;" width="465" x="0" y="1245.3867"/><line style="stroke:#000000;stroke-width:1.0;" x1="0" x2="465" y1="1245.3867" y2="1245.3867"/><line style="stroke:#000000;stroke-width:1.0;" x1="0" x2="465" y1="1248.3867" y2="1248.3867"/><rect fill="#EEEEEE" height="24.3516" style="stroke:#000000;stroke-width:2.0;" width="133" x="166" y="1234.2109"/><text fill="#000000" font-family="sans-serif" font-size="13" font-weight="bold" lengthAdjust="spacing" textLength="115" x="172" y="1251.7061">Phase fortification</text><path d="M30,1275.5625 L91,1275.5625 L91,1283.9141 L81,1293.9141 L30,1293.9141 L30,1275.5625 " fill="#EEEEEE" style="stroke:#000000;stroke-width:1.5;"/><rect fill="none" height="345.8672" style="stroke:#000000;stroke-width:1.5;" width="405" x="30" y="1275.5625"/><text fill="#000000" font-family="sans-serif" font-size="13" font-weight="bold" lengthAdjust="spacing" textLength="16" x="45" y="1290.0576">alt</text><text fill="#000000" font-family="sans-serif" font-size="11" font-weight="bold" lengthAdjust="spacing" textLength="212" x="106" y="1288.9814">[Si le joueur veut fortifier un territoire]</text><polygon fill="#181818" points="379.5,1312.2656,389.5,1316.2656,379.5,1320.2656,383.5,1316.2656" style="stroke:#181818;stroke-width:1.0;"/><line style="stroke:#181818;stroke-width:1.0;" x1="81.5" x2="385.5" y1="1316.2656" y2="1316.2656"/><text fill="#000000" font-family="sans-serif" font-size="13" lengthAdjust="spacing" textLength="104" x="88.5" y="1311.4092">obtenirTerritoires()</text><polygon fill="#181818" points="92.5,1342.6172,82.5,1346.6172,92.5,1350.6172,88.5,1346.6172" style="stroke:#181818;stroke-width:1.0;"/><line style="stroke:#181818;stroke-width:1.0;stroke-dasharray:2.0,2.0;" x1="86.5" x2="395.5" y1="1346.6172" y2="1346.6172"/><text fill="#000000" font-family="sans-serif" font-size="13" lengthAdjust="spacing" textLength="87" x="98.5" y="1341.7607">List&lt;Territoire&gt;</text><line style="stroke:#181818;stroke-width:1.0;" x1="81.5" x2="123.5" y1="1376.9688" y2="1376.9688"/><line style="stroke:#181818;stroke-width:1.0;" x1="123.5" x2="123.5" y1="1376.9688" y2="1389.9688"/><line style="stroke:#181818;stroke-width:1.0;" x1="82.5" x2="123.5" y1="1389.9688" y2="1389.9688"/><polygon fill="#181818" points="92.5,1385.9688,82.5,1389.9688,92.5,1393.9688,88.5,1389.9688" style="stroke:#181818;stroke-width:1.0;"/><text fill="#000000" font-family="sans-serif" font-size="13" lengthAdjust="spacing" textLength="218" x="88.5" y="1372.1123">Afficher une proposition des territoires</text><line style="stroke:#181818;stroke-width:1.0;" x1="81.5" x2="123.5" y1="1420.3203" y2="1420.3203"/><line style="stroke:#181818;stroke-width:1.0;" x1="123.5" x2="123.5" y1="1420.3203" y2="1433.3203"/><line style="stroke:#181818;stroke-width:1.0;" x1="82.5" x2="123.5" y1="1433.3203" y2="1433.3203"/><polygon fill="#181818" points="92.5,1429.3203,82.5,1433.3203,92.5,1437.3203,88.5,1433.3203" style="stroke:#181818;stroke-width:1.0;"/><text fill="#000000" font-family="sans-serif" font-size="13" lengthAdjust="spacing" textLength="130" x="88.5" y="1415.4639">choixTerritoireSource()</text><line style="stroke:#181818;stroke-width:1.0;" x1="81.5" x2="123.5" y1="1463.6719" y2="1463.6719"/><line style="stroke:#181818;stroke-width:1.0;" x1="123.5" x2="123.5" y1="1463.6719" y2="1476.6719"/><line style="stroke:#181818;stroke-width:1.0;" x1="82.5" x2="123.5" y1="1476.6719" y2="1476.6719"/><polygon fill="#181818" points="92.5,1472.6719,82.5,1476.6719,92.5,1480.6719,88.5,1476.6719" style="stroke:#181818;stroke-width:1.0;"/><text fill="#000000" font-family="sans-serif" font-size="13" lengthAdjust="spacing" textLength="118" x="88.5" y="1458.8154">choixTerritoireCible()</text><line style="stroke:#181818;stroke-width:1.0;" x1="81.5" x2="123.5" y1="1507.0234" y2="1507.0234"/><line style="stroke:#181818;stroke-width:1.0;" x1="123.5" x2="123.5" y1="1507.0234" y2="1520.0234"/><line style="stroke:#181818;stroke-width:1.0;" x1="82.5" x2="123.5" y1="1520.0234" y2="1520.0234"/><polygon fill="#181818" points="92.5,1516.0234,82.5,1520.0234,92.5,1524.0234,88.5,1520.0234" style="stroke:#181818;stroke-width:1.0;"/><text fill="#000000" font-family="sans-serif" font-size="13" lengthAdjust="spacing" textLength="117" x="88.5" y="1502.167">choixNbRegiments()</text><polygon fill="#181818" points="379.5,1595.4297,389.5,1599.4297,379.5,1603.4297,383.5,1599.4297" style="stroke:#181818;stroke-width:1.0;"/><line style="stroke:#181818;stroke-width:1.0;" x1="81.5" x2="385.5" y1="1599.4297" y2="1599.4297"/><text fill="#000000" font-family="sans-serif" font-size="13" lengthAdjust="spacing" textLength="108" x="88.5" y="1545.5186">déplacerRégiment(</text><text fill="#000000" font-family="sans-serif" font-size="13" lengthAdjust="spacing" textLength="95" x="120.5" y="1561.8701">TerritoireSource,</text><text fill="#000000" font-family="sans-serif" font-size="13" lengthAdjust="spacing" textLength="83" x="120.5" y="1578.2217">TerritoireCible,</text><text fill="#000000" font-family="sans-serif" font-size="13" lengthAdjust="spacing" textLength="109" x="120.5" y="1594.5732">nombreRégiments)</text><polygon fill="#181818" points="92.5,1609.4297,82.5,1613.4297,92.5,1617.4297,88.5,1613.4297" style="stroke:#181818;stroke-width:1.0;"/><line style="stroke:#181818;stroke-width:1.0;stroke-dasharray:2.0,2.0;" x1="86.5" x2="395.5" y1="1613.4297" y2="1613.4297"/><!--MD5=[a34a3f4e36f2754b0fb77ef39e16f9d4]
@startuml

hide footbox
participant "Joueur" as user
participant "Controler" as ctrl
ref over user, ctrl
    Initialisation du plateau et des joueurs
end ref

loop Tant qu'il n'y a pas de vainqueur
    
    !include inc/tour.puml

end 
@enduml

@startuml

hide footbox
participant "Joueur" as user
participant "Controler" as ctrl
ref over user, ctrl
    Initialisation du plateau et des joueurs
end ref

loop Tant qu'il n'y a pas de vainqueur
    
title Déroulement d'un tour

hide footbox
participant "Joueur" as user
participant "Controler" as ctrl

activate ctrl
== Phase renfort ==


hide footbox

participant "Controler" as ctrl
participant "Joueur" as user

ctrl -> user ++: calculerNbRenforts()
return nbRenforts

alt Si le joueur a au moins 3 cartes
    ctrl -> user ++: echangerCartes()
    return nbRenfortsCartes
end

loop Pour chaque nouveau régiment à ajouter
    ctrl -> user ++: getArmee()\n\t.ajouterPion(pion)
    return
end
ctrl -> user ++: getPionsAPlacer()
return List<Pion>
ctrl -> user ++: obtenirTerritoire()
return List<Territoire>
ctrl -> user ++: obtenirTerritoire()\n\t.ajouterRegiment(Pion, 1)
return

== Phase attaque ==


hide footbox

participant "Controler" as ctrl
participant "Joueur" as user

alt Si le joueur veut lancer une attaque
    
    ctrl -> user++ : demanderTerritoireSource()
    return
    ctrl -> ctrl: choisirTerritoireSource()
    ctrl -> user++ : demanderTerritoireCiblePourAttaquer(attaquant,tS)
    return
    ctrl -> ctrl: choisirTerrioireCible()
    ctrl -> user++ : demanderNbDesAttaque(tS)()
    return
    ctrl -> ctrl: choisirNbDesAttaque()
    ctrl -> user++ :lancerDes(desAttaque)
    return
    user -> ctrl : List<Dé> attaquant et défenseur 
    return
    ctrl -> user++ : resolveAttack(resultatsAttaque, desAttaque)
    return


    alt si l'attaquant à réussi l'attaque

        ctrl -> user++ :demanderNbRegimentDeplace(tS, tC)
        return
        ctrl -> ctrl:choisrNbRegimentDeplace()
    end
end

== Phase fortification ==



hide footbox
participant "Controler" as ctrl
participant "Joueur" as user


alt Si le joueur veut fortifier un territoire
    ctrl -> user ++: obtenirTerritoires()
    return List<Territoire>

    ctrl -> ctrl : Afficher une proposition des territoires

    ctrl -> ctrl : choixTerritoireSource()
    ctrl -> ctrl : choixTerritoireCible()
    ctrl -> ctrl : choixNbRegiments()

    ctrl -> user++ : déplacerRégiment(\n\tTerritoireSource, \n\tTerritoireCible, \n\tnombreRégiments)
    return

end
deactivate ctrl

end 
@enduml

PlantUML version 1.2022.7(Mon Aug 22 19:01:30 CEST 2022)
(GPL source distribution)
Java Runtime: Java(TM) SE Runtime Environment
JVM: Java HotSpot(TM) 64-Bit Server VM
Default Encoding: Cp1252
Language: fr
Country: FR
--></g></svg>