<?xml version="1.0" encoding="UTF-8" standalone="no"?><svg xmlns="http://www.w3.org/2000/svg" xmlns:xlink="http://www.w3.org/1999/xlink" contentStyleType="text/css" height="1994px" preserveAspectRatio="none" style="width:839px;height:1994px;background:#FFFFFF;" version="1.1" viewBox="0 0 839 1994" width="839px" zoomAndPan="magnify"><defs/><g><rect fill="none" height="27.6094" id="_title" style="stroke:none;stroke-width:1.0;" width="168" x="331.5" y="10"/><text fill="#000000" font-family="sans-serif" font-size="14" font-weight="bold" lengthAdjust="spacing" textLength="158" x="336.5" y="29.5332">Déroulement d'un tour</text><rect fill="#FFFFFF" height="14" style="stroke:#181818;stroke-width:1.0;" width="10" x="95" y="566.1406"/><rect fill="#FFFFFF" height="1846.3906" style="stroke:#181818;stroke-width:1.0;" width="10" x="303" y="131.2188"/><rect fill="#FFFFFF" height="30.3516" style="stroke:#181818;stroke-width:1.0;" width="10" x="545" y="197.9219"/><rect fill="#FFFFFF" height="30.3516" style="stroke:#181818;stroke-width:1.0;" width="10" x="545" y="334.6797"/><rect fill="#FFFFFF" height="41.5273" style="stroke:#181818;stroke-width:1.0;" width="10" x="545" y="449.9102"/><rect fill="#FFFFFF" height="14" style="stroke:#181818;stroke-width:1.0;" width="10" x="545" y="521.7891"/><rect fill="#FFFFFF" height="14" style="stroke:#181818;stroke-width:1.0;" width="10" x="545" y="700.1953"/><rect fill="#FFFFFF" height="30.3516" style="stroke:#181818;stroke-width:1.0;" width="10" x="545" y="915.6563"/><rect fill="#FFFFFF" height="30.3516" style="stroke:#181818;stroke-width:1.0;" width="10" x="545" y="1045.4141"/><rect fill="#FFFFFF" height="30.3516" style="stroke:#181818;stroke-width:1.0;" width="10" x="545" y="1149.4688"/><rect fill="#FFFFFF" height="14" style="stroke:#181818;stroke-width:1.0;" width="10" x="545" y="1384.2813"/><rect fill="#FFFFFF" height="14" style="stroke:#181818;stroke-width:1.0;" width="10" x="545" y="1530.3906"/><rect fill="#FFFFFF" height="30.3516" style="stroke:#181818;stroke-width:1.0;" width="10" x="545" y="1665.4453"/><rect fill="#FFFFFF" height="14" style="stroke:#181818;stroke-width:1.0;" width="10" x="545" y="1948.6094"/><rect fill="none" height="358.8672" style="stroke:#000000;stroke-width:1.5;" width="763" x="39" y="243.2734"/><rect fill="none" height="326.5156" style="stroke:#000000;stroke-width:1.5;" width="743" x="49" y="268.625"/><rect fill="none" height="294.1641" style="stroke:#000000;stroke-width:1.5;" width="723" x="59" y="293.9766"/><rect fill="none" height="62.7031" style="stroke:#000000;stroke-width:1.5;" width="323" x="261.5" y="659.4922"/><rect fill="none" height="716.7891" style="stroke:#000000;stroke-width:1.5;" width="812" x="10" y="849.6016"/><rect fill="none" height="684.4375" style="stroke:#000000;stroke-width:1.5;" width="792" x="20" y="874.9531"/><rect fill="none" height="252.1641" style="stroke:#000000;stroke-width:1.5;" width="504.5" x="261.5" y="1300.2266"/><rect fill="none" height="345.8672" style="stroke:#000000;stroke-width:1.5;" width="323" x="261.5" y="1624.7422"/><line style="stroke:#181818;stroke-width:0.5;stroke-dasharray:5.0,5.0;" x1="100" x2="100" y1="121.2188" y2="1987.6094"/><line style="stroke:#181818;stroke-width:0.5;stroke-dasharray:5.0,5.0;" x1="307.5" x2="307.5" y1="121.2188" y2="1987.6094"/><line style="stroke:#181818;stroke-width:0.5;stroke-dasharray:5.0,5.0;" x1="549.5" x2="549.5" y1="121.2188" y2="1987.6094"/><rect fill="#E2E2F0" height="31.6094" rx="2.5" ry="2.5" style="stroke:#181818;stroke-width:0.5;" width="62" x="69" y="88.6094"/><text fill="#000000" font-family="sans-serif" font-size="14" lengthAdjust="spacing" textLength="48" x="76" y="110.1426">Plateau</text><rect fill="#E2E2F0" height="31.6094" rx="2.5" ry="2.5" style="stroke:#181818;stroke-width:0.5;" width="73" x="271.5" y="88.6094"/><text fill="#000000" font-family="sans-serif" font-size="14" lengthAdjust="spacing" textLength="59" x="278.5" y="110.1426">Controler</text><text fill="#000000" font-family="sans-serif" font-size="14" lengthAdjust="spacing" textLength="43" x="525.5" y="118.1426">Joueur</text><ellipse cx="550" cy="52.1094" fill="#E2E2F0" rx="8" ry="8" style="stroke:#181818;stroke-width:0.5;"/><path d="M550,60.1094 L550,87.1094 M537,68.1094 L563,68.1094 M550,87.1094 L537,102.1094 M550,87.1094 L563,102.1094 " fill="none" style="stroke:#181818;stroke-width:0.5;"/><rect fill="#FFFFFF" height="14" style="stroke:#181818;stroke-width:1.0;" width="10" x="95" y="566.1406"/><rect fill="#FFFFFF" height="1846.3906" style="stroke:#181818;stroke-width:1.0;" width="10" x="303" y="131.2188"/><rect fill="#FFFFFF" height="30.3516" style="stroke:#181818;stroke-width:1.0;" width="10" x="545" y="197.9219"/><rect fill="#FFFFFF" height="30.3516" style="stroke:#181818;stroke-width:1.0;" width="10" x="545" y="334.6797"/><rect fill="#FFFFFF" height="41.5273" style="stroke:#181818;stroke-width:1.0;" width="10" x="545" y="449.9102"/><rect fill="#FFFFFF" height="14" style="stroke:#181818;stroke-width:1.0;" width="10" x="545" y="521.7891"/><rect fill="#FFFFFF" height="14" style="stroke:#181818;stroke-width:1.0;" width="10" x="545" y="700.1953"/><rect fill="#FFFFFF" height="30.3516" style="stroke:#181818;stroke-width:1.0;" width="10" x="545" y="915.6563"/><rect fill="#FFFFFF" height="30.3516" style="stroke:#181818;stroke-width:1.0;" width="10" x="545" y="1045.4141"/><rect fill="#FFFFFF" height="30.3516" style="stroke:#181818;stroke-width:1.0;" width="10" x="545" y="1149.4688"/><rect fill="#FFFFFF" height="14" style="stroke:#181818;stroke-width:1.0;" width="10" x="545" y="1384.2813"/><rect fill="#FFFFFF" height="14" style="stroke:#181818;stroke-width:1.0;" width="10" x="545" y="1530.3906"/><rect fill="#FFFFFF" height="30.3516" style="stroke:#181818;stroke-width:1.0;" width="10" x="545" y="1665.4453"/><rect fill="#FFFFFF" height="14" style="stroke:#181818;stroke-width:1.0;" width="10" x="545" y="1948.6094"/><rect fill="#EEEEEE" height="3" style="stroke:#EEEEEE;stroke-width:1.0;" width="832" x="0" y="152.3945"/><line style="stroke:#000000;stroke-width:1.0;" x1="0" x2="832" y1="152.3945" y2="152.3945"/><line style="stroke:#000000;stroke-width:1.0;" x1="0" x2="832" y1="155.3945" y2="155.3945"/><rect fill="#EEEEEE" height="24.3516" style="stroke:#000000;stroke-width:2.0;" width="103" x="364.5" y="141.2188"/><text fill="#000000" font-family="sans-serif" font-size="13" font-weight="bold" lengthAdjust="spacing" textLength="85" x="370.5" y="158.7139">Phase renfort</text><polygon fill="#181818" points="533,193.9219,543,197.9219,533,201.9219,537,197.9219" style="stroke:#181818;stroke-width:1.0;"/><line style="stroke:#181818;stroke-width:1.0;" x1="313" x2="539" y1="197.9219" y2="197.9219"/><text fill="#000000" font-family="sans-serif" font-size="13" lengthAdjust="spacing" textLength="117" x="320" y="193.0654">calculerNbRenforts()</text><polygon fill="#181818" points="324,224.2734,314,228.2734,324,232.2734,320,228.2734" style="stroke:#181818;stroke-width:1.0;"/><line style="stroke:#181818;stroke-width:1.0;stroke-dasharray:2.0,2.0;" x1="318" x2="549" y1="228.2734" y2="228.2734"/><text fill="#000000" font-family="sans-serif" font-size="13" lengthAdjust="spacing" textLength="62" x="330" y="223.417">nbRenforts</text><path d="M39,243.2734 L100,243.2734 L100,251.625 L90,261.625 L39,261.625 L39,243.2734 " fill="#EEEEEE" style="stroke:#000000;stroke-width:1.5;"/><rect fill="none" height="358.8672" style="stroke:#000000;stroke-width:1.5;" width="763" x="39" y="243.2734"/><text fill="#000000" font-family="sans-serif" font-size="13" font-weight="bold" lengthAdjust="spacing" textLength="16" x="54" y="257.7686">alt</text><text fill="#000000" font-family="sans-serif" font-size="11" font-weight="bold" lengthAdjust="spacing" textLength="180" x="115" y="256.6924">[Si le joueur a au moins 3 cartes]</text><path d="M49,268.625 L110,268.625 L110,276.9766 L100,286.9766 L49,286.9766 L49,268.625 " fill="#EEEEEE" style="stroke:#000000;stroke-width:1.5;"/><rect fill="none" height="326.5156" style="stroke:#000000;stroke-width:1.5;" width="743" x="49" y="268.625"/><text fill="#000000" font-family="sans-serif" font-size="13" font-weight="bold" lengthAdjust="spacing" textLength="16" x="64" y="283.1201">alt</text><text fill="#000000" font-family="sans-serif" font-size="11" font-weight="bold" lengthAdjust="spacing" textLength="305" x="125" y="282.0439">[Si le joueur veut échanger ou qu'il a au moins 5 cartes]</text><path d="M59,293.9766 L132,293.9766 L132,302.3281 L122,312.3281 L59,312.3281 L59,293.9766 " fill="#EEEEEE" style="stroke:#000000;stroke-width:1.5;"/><rect fill="none" height="294.1641" style="stroke:#000000;stroke-width:1.5;" width="723" x="59" y="293.9766"/><text fill="#000000" font-family="sans-serif" font-size="13" font-weight="bold" lengthAdjust="spacing" textLength="28" x="74" y="308.4717">loop</text><text fill="#000000" font-family="sans-serif" font-size="11" font-weight="bold" lengthAdjust="spacing" textLength="191" x="147" y="307.3955">[Tant que le joueur peut échanger]</text><polygon fill="#181818" points="533,330.6797,543,334.6797,533,338.6797,537,334.6797" style="stroke:#181818;stroke-width:1.0;"/><line style="stroke:#181818;stroke-width:1.0;" x1="313" x2="539" y1="334.6797" y2="334.6797"/><text fill="#000000" font-family="sans-serif" font-size="13" lengthAdjust="spacing" textLength="85" x="320" y="329.8232">obtenirCartes()</text><polygon fill="#181818" points="324,361.0313,314,365.0313,324,369.0313,320,365.0313" style="stroke:#181818;stroke-width:1.0;"/><line style="stroke:#181818;stroke-width:1.0;stroke-dasharray:2.0,2.0;" x1="318" x2="549" y1="365.0313" y2="365.0313"/><text fill="#000000" font-family="sans-serif" font-size="13" lengthAdjust="spacing" textLength="119" x="330" y="360.1748">Map&lt;Carte, Integer&gt;</text><line style="stroke:#181818;stroke-width:1.0;" x1="313" x2="355" y1="395.3828" y2="395.3828"/><line style="stroke:#181818;stroke-width:1.0;" x1="355" x2="355" y1="395.3828" y2="408.3828"/><line style="stroke:#181818;stroke-width:1.0;" x1="314" x2="355" y1="408.3828" y2="408.3828"/><polygon fill="#181818" points="324,404.3828,314,408.3828,324,412.3828,320,408.3828" style="stroke:#181818;stroke-width:1.0;"/><text fill="#000000" font-family="sans-serif" font-size="13" lengthAdjust="spacing" textLength="77" x="320" y="390.5264">choixCartes()</text><path d="M409,381.5313 L409,407.5313 L674,407.5313 L674,391.5313 L664,381.5313 L409,381.5313 " fill="#FEFFDD" style="stroke:#181818;stroke-width:0.5;"/><path d="M664,381.5313 L664,391.5313 L674,391.5313 L664,381.5313 " fill="#FEFFDD" style="stroke:#181818;stroke-width:0.5;"/><text fill="#000000" font-family="sans-serif" font-size="13" lengthAdjust="spacing" textLength="244" x="415" y="400.0264">Demander en saisie les cartes à échanger</text><polygon fill="#181818" points="533,445.9102,543,449.9102,533,453.9102,537,449.9102" style="stroke:#181818;stroke-width:1.0;"/><line style="stroke:#181818;stroke-width:1.0;" x1="313" x2="539" y1="449.9102" y2="449.9102"/><text fill="#000000" font-family="sans-serif" font-size="13" lengthAdjust="spacing" textLength="193" x="320" y="445.0537">échangerCartes(List&lt;CarteRisk&gt;)</text><path d="M560,421.3828 L560,463.3828 L777,463.3828 L777,431.3828 L767,421.3828 L560,421.3828 " fill="#FEFFDD" style="stroke:#181818;stroke-width:0.5;"/><path d="M767,421.3828 L767,431.3828 L777,431.3828 L767,421.3828 " fill="#FEFFDD" style="stroke:#181818;stroke-width:0.5;"/><text fill="#000000" font-family="sans-serif" font-size="13" lengthAdjust="spacing" textLength="192" x="566" y="439.8779">Penser à supprimer les cartes du</text><text fill="#000000" font-family="sans-serif" font-size="13" lengthAdjust="spacing" textLength="85" x="566" y="456.2295">deck du joueur</text><polygon fill="#181818" points="324,487.4375,314,491.4375,324,495.4375,320,491.4375" style="stroke:#181818;stroke-width:1.0;"/><line style="stroke:#181818;stroke-width:1.0;stroke-dasharray:2.0,2.0;" x1="318" x2="549" y1="491.4375" y2="491.4375"/><text fill="#000000" font-family="sans-serif" font-size="13" lengthAdjust="spacing" textLength="120" x="330" y="486.5811">nbRenfortsEchanges</text><polygon fill="#181818" points="533,517.7891,543,521.7891,533,525.7891,537,521.7891" style="stroke:#181818;stroke-width:1.0;"/><line style="stroke:#181818;stroke-width:1.0;" x1="313" x2="539" y1="521.7891" y2="521.7891"/><text fill="#000000" font-family="sans-serif" font-size="13" lengthAdjust="spacing" textLength="180" x="320" y="516.9326">enleverCartes(List&lt;CarteRisk&gt;)</text><polygon fill="#181818" points="324,531.7891,314,535.7891,324,539.7891,320,535.7891" style="stroke:#181818;stroke-width:1.0;"/><line style="stroke:#181818;stroke-width:1.0;stroke-dasharray:2.0,2.0;" x1="318" x2="549" y1="535.7891" y2="535.7891"/><polygon fill="#181818" points="116,562.1406,106,566.1406,116,570.1406,112,566.1406" style="stroke:#181818;stroke-width:1.0;"/><line style="stroke:#181818;stroke-width:1.0;" x1="110" x2="302" y1="566.1406" y2="566.1406"/><text fill="#000000" font-family="sans-serif" font-size="13" lengthAdjust="spacing" textLength="179" x="122" y="561.2842">ajouterCartes(List&lt;CarteRisk&gt;)</text><polygon fill="#181818" points="291,576.1406,301,580.1406,291,584.1406,295,580.1406" style="stroke:#181818;stroke-width:1.0;"/><line style="stroke:#181818;stroke-width:1.0;stroke-dasharray:2.0,2.0;" x1="100" x2="297" y1="580.1406" y2="580.1406"/><line style="stroke:#181818;stroke-width:1.0;" x1="313" x2="355" y1="631.4922" y2="631.4922"/><line style="stroke:#181818;stroke-width:1.0;" x1="355" x2="355" y1="631.4922" y2="644.4922"/><line style="stroke:#181818;stroke-width:1.0;" x1="314" x2="355" y1="644.4922" y2="644.4922"/><polygon fill="#181818" points="324,640.4922,314,644.4922,324,648.4922,320,644.4922" style="stroke:#181818;stroke-width:1.0;"/><text fill="#000000" font-family="sans-serif" font-size="13" lengthAdjust="spacing" textLength="185" x="320" y="626.6357">Déterminer les troupes à ajouter</text><path d="M261.5,659.4922 L334.5,659.4922 L334.5,667.8438 L324.5,677.8438 L261.5,677.8438 L261.5,659.4922 " fill="#EEEEEE" style="stroke:#000000;stroke-width:1.5;"/><rect fill="none" height="62.7031" style="stroke:#000000;stroke-width:1.5;" width="323" x="261.5" y="659.4922"/><text fill="#000000" font-family="sans-serif" font-size="13" font-weight="bold" lengthAdjust="spacing" textLength="28" x="276.5" y="673.9873">loop</text><text fill="#000000" font-family="sans-serif" font-size="11" font-weight="bold" lengthAdjust="spacing" textLength="142" x="349.5" y="672.9111">[Pour chaque nbRenforts]</text><polygon fill="#181818" points="533,696.1953,543,700.1953,533,704.1953,537,700.1953" style="stroke:#181818;stroke-width:1.0;"/><line style="stroke:#181818;stroke-width:1.0;" x1="313" x2="539" y1="700.1953" y2="700.1953"/><text fill="#000000" font-family="sans-serif" font-size="13" lengthAdjust="spacing" textLength="73" x="320" y="695.3389">ajouterPion()</text><polygon fill="#181818" points="324,710.1953,314,714.1953,324,718.1953,320,714.1953" style="stroke:#181818;stroke-width:1.0;"/><line style="stroke:#181818;stroke-width:1.0;stroke-dasharray:2.0,2.0;" x1="318" x2="549" y1="714.1953" y2="714.1953"/><line style="stroke:#181818;stroke-width:1.0;" x1="313" x2="355" y1="764.3984" y2="764.3984"/><line style="stroke:#181818;stroke-width:1.0;" x1="355" x2="355" y1="764.3984" y2="777.3984"/><line style="stroke:#181818;stroke-width:1.0;" x1="314" x2="355" y1="777.3984" y2="777.3984"/><polygon fill="#181818" points="324,773.3984,314,777.3984,324,781.3984,320,777.3984" style="stroke:#181818;stroke-width:1.0;"/><text fill="#000000" font-family="sans-serif" font-size="13" lengthAdjust="spacing" textLength="91" x="320" y="759.542">placerRenforts()</text><path d="M423,734.1953 L423,793.1953 L662,793.1953 L662,744.1953 L652,734.1953 L423,734.1953 " fill="#FEFFDD" style="stroke:#181818;stroke-width:0.5;"/><path d="M652,734.1953 L652,744.1953 L662,744.1953 L652,734.1953 " fill="#FEFFDD" style="stroke:#181818;stroke-width:0.5;"/><text fill="#000000" font-family="sans-serif" font-size="13" lengthAdjust="spacing" textLength="214" x="429" y="752.6904">Nécessite de demander en saisie les</text><text fill="#000000" font-family="sans-serif" font-size="13" lengthAdjust="spacing" textLength="160" x="429" y="769.042">territoires où positionner les</text><text fill="#000000" font-family="sans-serif" font-size="13" lengthAdjust="spacing" textLength="101" x="429" y="785.3936">troupes de renfort</text><rect fill="#EEEEEE" height="3" style="stroke:#EEEEEE;stroke-width:1.0;" width="832" x="0" y="819.4258"/><line style="stroke:#000000;stroke-width:1.0;" x1="0" x2="832" y1="819.4258" y2="819.4258"/><line style="stroke:#000000;stroke-width:1.0;" x1="0" x2="832" y1="822.4258" y2="822.4258"/><rect fill="#EEEEEE" height="24.3516" style="stroke:#000000;stroke-width:2.0;" width="109" x="361.5" y="808.25"/><text fill="#000000" font-family="sans-serif" font-size="13" font-weight="bold" lengthAdjust="spacing" textLength="91" x="367.5" y="825.7451">Phase attaque</text><path d="M10,849.6016 L71,849.6016 L71,857.9531 L61,867.9531 L10,867.9531 L10,849.6016 " fill="#EEEEEE" style="stroke:#000000;stroke-width:1.5;"/><rect fill="none" height="716.7891" style="stroke:#000000;stroke-width:1.5;" width="812" x="10" y="849.6016"/><text fill="#000000" font-family="sans-serif" font-size="13" font-weight="bold" lengthAdjust="spacing" textLength="16" x="25" y="864.0967">alt</text><text fill="#000000" font-family="sans-serif" font-size="11" font-weight="bold" lengthAdjust="spacing" textLength="146" x="86" y="863.0205">[Si le joueur veut attaquer]</text><path d="M20,874.9531 L93,874.9531 L93,883.3047 L83,893.3047 L20,893.3047 L20,874.9531 " fill="#EEEEEE" style="stroke:#000000;stroke-width:1.5;"/><rect fill="none" height="684.4375" style="stroke:#000000;stroke-width:1.5;" width="792" x="20" y="874.9531"/><text fill="#000000" font-family="sans-serif" font-size="13" font-weight="bold" lengthAdjust="spacing" textLength="28" x="35" y="889.4482">loop</text><text fill="#000000" font-family="sans-serif" font-size="11" font-weight="bold" lengthAdjust="spacing" textLength="244" x="108" y="888.3721">[Tant que le joueur peut mener une attaque]</text><polygon fill="#181818" points="533,911.6563,543,915.6563,533,919.6563,537,915.6563" style="stroke:#181818;stroke-width:1.0;"/><line style="stroke:#181818;stroke-width:1.0;" x1="313" x2="539" y1="915.6563" y2="915.6563"/><text fill="#000000" font-family="sans-serif" font-size="13" lengthAdjust="spacing" textLength="104" x="320" y="910.7998">obtenirTerritoires()</text><polygon fill="#181818" points="324,942.0078,314,946.0078,324,950.0078,320,946.0078" style="stroke:#181818;stroke-width:1.0;"/><line style="stroke:#181818;stroke-width:1.0;stroke-dasharray:2.0,2.0;" x1="318" x2="549" y1="946.0078" y2="946.0078"/><text fill="#000000" font-family="sans-serif" font-size="13" lengthAdjust="spacing" textLength="87" x="330" y="941.1514">List&lt;Territoire&gt;</text><line style="stroke:#181818;stroke-width:1.0;" x1="313" x2="355" y1="989.2109" y2="989.2109"/><line style="stroke:#181818;stroke-width:1.0;" x1="355" x2="355" y1="989.2109" y2="1002.2109"/><line style="stroke:#181818;stroke-width:1.0;" x1="314" x2="355" y1="1002.2109" y2="1002.2109"/><polygon fill="#181818" points="324,998.2109,314,1002.2109,324,1006.2109,320,1002.2109" style="stroke:#181818;stroke-width:1.0;"/><text fill="#000000" font-family="sans-serif" font-size="13" lengthAdjust="spacing" textLength="168" x="320" y="984.3545">choisirTerritoirePourAttaque()</text><path d="M500,959.0078 L500,1018.0078 L787,1018.0078 L787,969.0078 L777,959.0078 L500,959.0078 " fill="#FEFFDD" style="stroke:#181818;stroke-width:0.5;"/><path d="M777,959.0078 L777,969.0078 L787,969.0078 L777,959.0078 " fill="#FEFFDD" style="stroke:#181818;stroke-width:0.5;"/><text fill="#000000" font-family="sans-serif" font-size="13" lengthAdjust="spacing" textLength="114" x="506" y="977.5029">Afficher une liste de</text><text fill="#000000" font-family="sans-serif" font-size="13" lengthAdjust="spacing" textLength="266" x="506" y="993.8545">proposition des territoires pour lancer l'attaque</text><text fill="#000000" font-family="sans-serif" font-size="13" lengthAdjust="spacing" textLength="164" x="506" y="1010.2061">et saisir le choix d'utilisateur</text><polygon fill="#181818" points="533,1041.4141,543,1045.4141,533,1049.4141,537,1045.4141" style="stroke:#181818;stroke-width:1.0;"/><line style="stroke:#181818;stroke-width:1.0;" x1="313" x2="539" y1="1045.4141" y2="1045.4141"/><text fill="#000000" font-family="sans-serif" font-size="13" lengthAdjust="spacing" textLength="90" x="320" y="1040.5576">getTerritoire(int)</text><polygon fill="#181818" points="324,1071.7656,314,1075.7656,324,1079.7656,320,1075.7656" style="stroke:#181818;stroke-width:1.0;"/><line style="stroke:#181818;stroke-width:1.0;stroke-dasharray:2.0,2.0;" x1="318" x2="549" y1="1075.7656" y2="1075.7656"/><text fill="#000000" font-family="sans-serif" font-size="13" lengthAdjust="spacing" textLength="50" x="330" y="1070.9092">Territoire</text><line style="stroke:#181818;stroke-width:1.0;" x1="313" x2="355" y1="1106.1172" y2="1106.1172"/><line style="stroke:#181818;stroke-width:1.0;" x1="355" x2="355" y1="1106.1172" y2="1119.1172"/><line style="stroke:#181818;stroke-width:1.0;" x1="314" x2="355" y1="1119.1172" y2="1119.1172"/><polygon fill="#181818" points="324,1115.1172,314,1119.1172,324,1123.1172,320,1119.1172" style="stroke:#181818;stroke-width:1.0;"/><text fill="#000000" font-family="sans-serif" font-size="13" lengthAdjust="spacing" textLength="85" x="320" y="1101.2607">choisirNbDés()</text><path d="M417,1092.2656 L417,1118.2656 L677,1118.2656 L677,1102.2656 L667,1092.2656 L417,1092.2656 " fill="#FEFFDD" style="stroke:#181818;stroke-width:0.5;"/><path d="M667,1092.2656 L667,1102.2656 L677,1102.2656 L667,1092.2656 " fill="#FEFFDD" style="stroke:#181818;stroke-width:0.5;"/><text fill="#000000" font-family="sans-serif" font-size="13" lengthAdjust="spacing" textLength="239" x="423" y="1110.7607">Demander à l'utilisateur le nombre de dés</text><polygon fill="#181818" points="533,1145.4688,543,1149.4688,533,1153.4688,537,1149.4688" style="stroke:#181818;stroke-width:1.0;"/><line style="stroke:#181818;stroke-width:1.0;" x1="313" x2="539" y1="1149.4688" y2="1149.4688"/><text fill="#000000" font-family="sans-serif" font-size="13" lengthAdjust="spacing" textLength="80" x="320" y="1144.6123">lancerDés(int)</text><polygon fill="#181818" points="324,1175.8203,314,1179.8203,324,1183.8203,320,1179.8203" style="stroke:#181818;stroke-width:1.0;"/><line style="stroke:#181818;stroke-width:1.0;stroke-dasharray:2.0,2.0;" x1="318" x2="549" y1="1179.8203" y2="1179.8203"/><text fill="#000000" font-family="sans-serif" font-size="13" lengthAdjust="spacing" textLength="53" x="330" y="1174.9639">List&lt;Dé&gt;</text><line style="stroke:#181818;stroke-width:1.0;" x1="313" x2="355" y1="1214.8477" y2="1214.8477"/><line style="stroke:#181818;stroke-width:1.0;" x1="355" x2="355" y1="1214.8477" y2="1227.8477"/><line style="stroke:#181818;stroke-width:1.0;" x1="314" x2="355" y1="1227.8477" y2="1227.8477"/><polygon fill="#181818" points="324,1223.8477,314,1227.8477,324,1231.8477,320,1227.8477" style="stroke:#181818;stroke-width:1.0;"/><text fill="#000000" font-family="sans-serif" font-size="13" lengthAdjust="spacing" textLength="214" x="320" y="1209.9912">Lancer les dés de la défense adverse</text><path d="M546,1192.8203 L546,1234.8203 L792,1234.8203 L792,1202.8203 L782,1192.8203 L546,1192.8203 " fill="#FEFFDD" style="stroke:#181818;stroke-width:0.5;"/><path d="M782,1192.8203 L782,1202.8203 L792,1202.8203 L782,1192.8203 " fill="#FEFFDD" style="stroke:#181818;stroke-width:0.5;"/><text fill="#000000" font-family="sans-serif" font-size="13" lengthAdjust="spacing" textLength="221" x="552" y="1211.3154">Il faudra penser à obtenir le nombre de</text><text fill="#000000" font-family="sans-serif" font-size="13" lengthAdjust="spacing" textLength="205" x="552" y="1227.667">dés que le joueur adverse peut jeter</text><line style="stroke:#181818;stroke-width:1.0;" x1="313" x2="355" y1="1267.5508" y2="1267.5508"/><line style="stroke:#181818;stroke-width:1.0;" x1="355" x2="355" y1="1267.5508" y2="1280.5508"/><line style="stroke:#181818;stroke-width:1.0;" x1="314" x2="355" y1="1280.5508" y2="1280.5508"/><polygon fill="#181818" points="324,1276.5508,314,1280.5508,324,1284.5508,320,1280.5508" style="stroke:#181818;stroke-width:1.0;"/><text fill="#000000" font-family="sans-serif" font-size="13" lengthAdjust="spacing" textLength="189" x="320" y="1262.6943">Déterminer les troupes restantes</text><path d="M30,1245.5234 L30,1287.5234 L298,1287.5234 L298,1255.5234 L288,1245.5234 L30,1245.5234 " fill="#FEFFDD" style="stroke:#181818;stroke-width:0.5;"/><path d="M288,1245.5234 L288,1255.5234 L298,1255.5234 L288,1245.5234 " fill="#FEFFDD" style="stroke:#181818;stroke-width:0.5;"/><text fill="#000000" font-family="sans-serif" font-size="13" lengthAdjust="spacing" textLength="243" x="36" y="1264.0186">/!\ Attention, la détermination de la victoire</text><text fill="#000000" font-family="sans-serif" font-size="13" lengthAdjust="spacing" textLength="170" x="36" y="1280.3701">entre deux dés n'est pas faite</text><path d="M261.5,1300.2266 L322.5,1300.2266 L322.5,1308.5781 L312.5,1318.5781 L261.5,1318.5781 L261.5,1300.2266 " fill="#EEEEEE" style="stroke:#000000;stroke-width:1.5;"/><rect fill="none" height="252.1641" style="stroke:#000000;stroke-width:1.5;" width="504.5" x="261.5" y="1300.2266"/><text fill="#000000" font-family="sans-serif" font-size="13" font-weight="bold" lengthAdjust="spacing" textLength="16" x="276.5" y="1314.7217">alt</text><text fill="#000000" font-family="sans-serif" font-size="11" font-weight="bold" lengthAdjust="spacing" textLength="167" x="337.5" y="1313.6455">[L'attaquant a réussi l'attaque]</text><line style="stroke:#181818;stroke-width:1.0;" x1="313" x2="355" y1="1340.9297" y2="1340.9297"/><line style="stroke:#181818;stroke-width:1.0;" x1="355" x2="355" y1="1340.9297" y2="1353.9297"/><line style="stroke:#181818;stroke-width:1.0;" x1="314" x2="355" y1="1353.9297" y2="1353.9297"/><polygon fill="#181818" points="324,1349.9297,314,1353.9297,324,1357.9297,320,1353.9297" style="stroke:#181818;stroke-width:1.0;"/><text fill="#000000" font-family="sans-serif" font-size="13" lengthAdjust="spacing" textLength="151" x="320" y="1336.0732">retirerTerritoireAdversaire()</text><path d="M483,1327.0781 L483,1353.0781 L681,1353.0781 L681,1337.0781 L671,1327.0781 L483,1327.0781 " fill="#FEFFDD" style="stroke:#181818;stroke-width:0.5;"/><path d="M671,1327.0781 L671,1337.0781 L681,1337.0781 L671,1327.0781 " fill="#FEFFDD" style="stroke:#181818;stroke-width:0.5;"/><text fill="#000000" font-family="sans-serif" font-size="13" lengthAdjust="spacing" textLength="177" x="489" y="1345.5732">Retire le territoire du défenseur</text><polygon fill="#181818" points="533,1380.2813,543,1384.2813,533,1388.2813,537,1384.2813" style="stroke:#181818;stroke-width:1.0;"/><line style="stroke:#181818;stroke-width:1.0;" x1="313" x2="539" y1="1384.2813" y2="1384.2813"/><text fill="#000000" font-family="sans-serif" font-size="13" lengthAdjust="spacing" textLength="147" x="320" y="1379.4248">ajouterTerritoire(Territoire)</text><polygon fill="#181818" points="324,1394.2813,314,1398.2813,324,1402.2813,320,1398.2813" style="stroke:#181818;stroke-width:1.0;"/><line style="stroke:#181818;stroke-width:1.0;stroke-dasharray:2.0,2.0;" x1="318" x2="549" y1="1398.2813" y2="1398.2813"/><line style="stroke:#181818;stroke-width:1.0;" x1="313" x2="355" y1="1433.3086" y2="1433.3086"/><line style="stroke:#181818;stroke-width:1.0;" x1="355" x2="355" y1="1433.3086" y2="1446.3086"/><line style="stroke:#181818;stroke-width:1.0;" x1="314" x2="355" y1="1446.3086" y2="1446.3086"/><polygon fill="#181818" points="324,1442.3086,314,1446.3086,324,1450.3086,320,1446.3086" style="stroke:#181818;stroke-width:1.0;"/><text fill="#000000" font-family="sans-serif" font-size="13" lengthAdjust="spacing" textLength="213" x="320" y="1428.4521">choisirNombreTroupesDeplacement()</text><path d="M545,1411.2813 L545,1453.2813 L746,1453.2813 L746,1421.2813 L736,1411.2813 L545,1411.2813 " fill="#FEFFDD" style="stroke:#181818;stroke-width:0.5;"/><path d="M736,1411.2813 L736,1421.2813 L746,1421.2813 L736,1411.2813 " fill="#FEFFDD" style="stroke:#181818;stroke-width:0.5;"/><text fill="#000000" font-family="sans-serif" font-size="13" lengthAdjust="spacing" textLength="176" x="551" y="1429.7764">Demander la saisie du nombre</text><text fill="#000000" font-family="sans-serif" font-size="13" lengthAdjust="spacing" textLength="125" x="551" y="1446.1279">de troupes à déplacer</text><polygon fill="#181818" points="533,1526.3906,543,1530.3906,533,1534.3906,537,1530.3906" style="stroke:#181818;stroke-width:1.0;"/><line style="stroke:#181818;stroke-width:1.0;" x1="313" x2="539" y1="1530.3906" y2="1530.3906"/><text fill="#000000" font-family="sans-serif" font-size="13" lengthAdjust="spacing" textLength="108" x="320" y="1476.4795">deplacerRegiment(</text><text fill="#000000" font-family="sans-serif" font-size="13" lengthAdjust="spacing" textLength="95" x="352" y="1492.8311">TerritoireSource,</text><text fill="#000000" font-family="sans-serif" font-size="13" lengthAdjust="spacing" textLength="83" x="352" y="1509.1826">TerritoireCible,</text><text fill="#000000" font-family="sans-serif" font-size="13" lengthAdjust="spacing" textLength="109" x="352" y="1525.5342">nombreRégiments)</text><polygon fill="#181818" points="324,1540.3906,314,1544.3906,324,1548.3906,320,1544.3906" style="stroke:#181818;stroke-width:1.0;"/><line style="stroke:#181818;stroke-width:1.0;stroke-dasharray:2.0,2.0;" x1="318" x2="549" y1="1544.3906" y2="1544.3906"/><rect fill="#EEEEEE" height="3" style="stroke:#EEEEEE;stroke-width:1.0;" width="832" x="0" y="1594.5664"/><line style="stroke:#000000;stroke-width:1.0;" x1="0" x2="832" y1="1594.5664" y2="1594.5664"/><line style="stroke:#000000;stroke-width:1.0;" x1="0" x2="832" y1="1597.5664" y2="1597.5664"/><rect fill="#EEEEEE" height="24.3516" style="stroke:#000000;stroke-width:2.0;" width="133" x="349.5" y="1583.3906"/><text fill="#000000" font-family="sans-serif" font-size="13" font-weight="bold" lengthAdjust="spacing" textLength="115" x="355.5" y="1600.8857">Phase fortification</text><path d="M261.5,1624.7422 L322.5,1624.7422 L322.5,1633.0938 L312.5,1643.0938 L261.5,1643.0938 L261.5,1624.7422 " fill="#EEEEEE" style="stroke:#000000;stroke-width:1.5;"/><rect fill="none" height="345.8672" style="stroke:#000000;stroke-width:1.5;" width="323" x="261.5" y="1624.7422"/><text fill="#000000" font-family="sans-serif" font-size="13" font-weight="bold" lengthAdjust="spacing" textLength="16" x="276.5" y="1639.2373">alt</text><text fill="#000000" font-family="sans-serif" font-size="11" font-weight="bold" lengthAdjust="spacing" textLength="212" x="337.5" y="1638.1611">[Si le joueur veut fortifier un territoire]</text><polygon fill="#181818" points="533,1661.4453,543,1665.4453,533,1669.4453,537,1665.4453" style="stroke:#181818;stroke-width:1.0;"/><line style="stroke:#181818;stroke-width:1.0;" x1="313" x2="539" y1="1665.4453" y2="1665.4453"/><text fill="#000000" font-family="sans-serif" font-size="13" lengthAdjust="spacing" textLength="104" x="320" y="1660.5889">obtenirTerritoires()</text><polygon fill="#181818" points="324,1691.7969,314,1695.7969,324,1699.7969,320,1695.7969" style="stroke:#181818;stroke-width:1.0;"/><line style="stroke:#181818;stroke-width:1.0;stroke-dasharray:2.0,2.0;" x1="318" x2="549" y1="1695.7969" y2="1695.7969"/><text fill="#000000" font-family="sans-serif" font-size="13" lengthAdjust="spacing" textLength="87" x="330" y="1690.9404">List&lt;Territoire&gt;</text><line style="stroke:#181818;stroke-width:1.0;" x1="313" x2="355" y1="1726.1484" y2="1726.1484"/><line style="stroke:#181818;stroke-width:1.0;" x1="355" x2="355" y1="1726.1484" y2="1739.1484"/><line style="stroke:#181818;stroke-width:1.0;" x1="314" x2="355" y1="1739.1484" y2="1739.1484"/><polygon fill="#181818" points="324,1735.1484,314,1739.1484,324,1743.1484,320,1739.1484" style="stroke:#181818;stroke-width:1.0;"/><text fill="#000000" font-family="sans-serif" font-size="13" lengthAdjust="spacing" textLength="218" x="320" y="1721.292">Afficher une proposition des territoires</text><line style="stroke:#181818;stroke-width:1.0;" x1="313" x2="355" y1="1769.5" y2="1769.5"/><line style="stroke:#181818;stroke-width:1.0;" x1="355" x2="355" y1="1769.5" y2="1782.5"/><line style="stroke:#181818;stroke-width:1.0;" x1="314" x2="355" y1="1782.5" y2="1782.5"/><polygon fill="#181818" points="324,1778.5,314,1782.5,324,1786.5,320,1782.5" style="stroke:#181818;stroke-width:1.0;"/><text fill="#000000" font-family="sans-serif" font-size="13" lengthAdjust="spacing" textLength="130" x="320" y="1764.6436">choixTerritoireSource()</text><line style="stroke:#181818;stroke-width:1.0;" x1="313" x2="355" y1="1812.8516" y2="1812.8516"/><line style="stroke:#181818;stroke-width:1.0;" x1="355" x2="355" y1="1812.8516" y2="1825.8516"/><line style="stroke:#181818;stroke-width:1.0;" x1="314" x2="355" y1="1825.8516" y2="1825.8516"/><polygon fill="#181818" points="324,1821.8516,314,1825.8516,324,1829.8516,320,1825.8516" style="stroke:#181818;stroke-width:1.0;"/><text fill="#000000" font-family="sans-serif" font-size="13" lengthAdjust="spacing" textLength="118" x="320" y="1807.9951">choixTerritoireCible()</text><line style="stroke:#181818;stroke-width:1.0;" x1="313" x2="355" y1="1856.2031" y2="1856.2031"/><line style="stroke:#181818;stroke-width:1.0;" x1="355" x2="355" y1="1856.2031" y2="1869.2031"/><line style="stroke:#181818;stroke-width:1.0;" x1="314" x2="355" y1="1869.2031" y2="1869.2031"/><polygon fill="#181818" points="324,1865.2031,314,1869.2031,324,1873.2031,320,1869.2031" style="stroke:#181818;stroke-width:1.0;"/><text fill="#000000" font-family="sans-serif" font-size="13" lengthAdjust="spacing" textLength="117" x="320" y="1851.3467">choixNbRegiments()</text><polygon fill="#181818" points="533,1944.6094,543,1948.6094,533,1952.6094,537,1948.6094" style="stroke:#181818;stroke-width:1.0;"/><line style="stroke:#181818;stroke-width:1.0;" x1="313" x2="539" y1="1948.6094" y2="1948.6094"/><text fill="#000000" font-family="sans-serif" font-size="13" lengthAdjust="spacing" textLength="108" x="320" y="1894.6982">déplacerRégiment(</text><text fill="#000000" font-family="sans-serif" font-size="13" lengthAdjust="spacing" textLength="95" x="352" y="1911.0498">TerritoireSource,</text><text fill="#000000" font-family="sans-serif" font-size="13" lengthAdjust="spacing" textLength="83" x="352" y="1927.4014">TerritoireCible,</text><text fill="#000000" font-family="sans-serif" font-size="13" lengthAdjust="spacing" textLength="109" x="352" y="1943.7529">nombreRégiments)</text><polygon fill="#181818" points="324,1958.6094,314,1962.6094,324,1966.6094,320,1962.6094" style="stroke:#181818;stroke-width:1.0;"/><line style="stroke:#181818;stroke-width:1.0;stroke-dasharray:2.0,2.0;" x1="318" x2="549" y1="1962.6094" y2="1962.6094"/><!--MD5=[ded0b086d6896f8adaf3c4b76b63cf72]
@startuml

!include inc/tour.puml

@enduml

@startuml

title Déroulement d'un tour

hide footbox
actor "Joueur" as user
participant "Controler" as ctrl

activate ctrl
== Phase renfort ==


hide footbox

participant "Controler" as ctrl
actor "Joueur" as user
participant "Plateau" as plat

ctrl -> user ++: calculerNbRenforts()
return nbRenforts

alt Si le joueur a au moins 3 cartes
    alt Si le joueur veut échanger ou qu'il a au moins 5 cartes
        loop Tant que le joueur peut échanger
            ctrl -> user ++: obtenirCartes()
            return Map<Carte, Integer>

            ctrl -> ctrl : choixCartes()
            note right
                Demander en saisie les cartes à échanger
            end note
            ctrl -> user ++: échangerCartes(List<CarteRisk>)
                note right
                    Penser à supprimer les cartes du 
                    deck du joueur
                end note
            return nbRenfortsEchanges

            ctrl -> user++: enleverCartes(List<CarteRisk>)
            return

            ctrl -> plat++:ajouterCartes(List<CarteRisk>)
            return
        end
    end
end

ctrl -> ctrl : Déterminer les troupes à ajouter

loop Pour chaque nbRenforts
    ctrl -> user ++: ajouterPion()
    return
    
end
ctrl -> ctrl : placerRenforts()
note right
    Nécessite de demander en saisie les 
    territoires où positionner les 
    troupes de renfort
end note

== Phase attaque ==


hide footbox

participant "Controler" as ctrl
actor "Joueur" as user

alt Si le joueur veut attaquer
    loop Tant que le joueur peut mener une attaque
        ctrl -> user ++: obtenirTerritoires()
        return List<Territoire>

        ctrl -> ctrl : choisirTerritoirePourAttaque()
        note right
            Afficher une liste de 
            proposition des territoires pour lancer l'attaque
            et saisir le choix d'utilisateur
        end note

        ctrl -> user ++: getTerritoire(int)
        return Territoire

        ctrl -> ctrl : choisirNbDés()
        note right
            Demander à l'utilisateur le nombre de dés
        end note

        ctrl -> user++ : lancerDés(int)
        return List<Dé>

        ctrl -> ctrl : Lancer les dés de la défense adverse
        note right
            Il faudra penser à obtenir le nombre de 
            dés que le joueur adverse peut jeter
        end note

        ctrl -> ctrl : Déterminer les troupes restantes
        note left
            /!\ Attention, la détermination de la victoire 
            entre deux dés n'est pas faite
        end note

        alt L'attaquant a réussi l'attaque
            ctrl -> ctrl : retirerTerritoireAdversaire()
            note right
                Retire le territoire du défenseur
            end note

            ctrl -> user ++: ajouterTerritoire(Territoire)
            return

            ctrl -> ctrl : choisirNombreTroupesDeplacement()
            note right
                Demander la saisie du nombre 
                de troupes à déplacer
            end note
            ctrl -> user ++: deplacerRegiment(\n\tTerritoireSource, \n\tTerritoireCible, \n\tnombreRégiments)
            return

        end
    end
end

== Phase fortification ==



hide footbox
participant "Controler" as ctrl
actor "Joueur" as user


alt Si le joueur veut fortifier un territoire
    ctrl -> user ++: obtenirTerritoires()
    return List<Territoire>

    ctrl -> ctrl : Afficher une proposition des territoires

    ctrl -> ctrl : choixTerritoireSource()
    ctrl -> ctrl : choixTerritoireCible()
    ctrl -> ctrl : choixNbRegiments()

    ctrl -> user++ : déplacerRégiment(\n\tTerritoireSource, \n\tTerritoireCible, \n\tnombreRégiments)
    return

end
deactivate ctrl

@enduml

PlantUML version 1.2022.7(Mon Aug 22 19:01:30 CEST 2022)
(GPL source distribution)
Java Runtime: Java(TM) SE Runtime Environment
JVM: Java HotSpot(TM) 64-Bit Server VM
Default Encoding: Cp1252
Language: fr
Country: FR
--></g></svg>